<?xml version="1.0" encoding="UTF-8"?><svg id="uuid-3907bc53-b61b-464c-8251-e0d067f84d5f" xmlns="http://www.w3.org/2000/svg" viewBox="0 0 100 100"><defs><style>.uuid-221ec090-f4d6-4ce7-8d08-fe71aa7bc5f3{fill:#2b76ba;}.uuid-221ec090-f4d6-4ce7-8d08-fe71aa7bc5f3,.uuid-3301b413-f75c-4a06-8490-e29b8c8977b9{stroke-width:0px;}.uuid-3301b413-f75c-4a06-8490-e29b8c8977b9{fill:#fff;}</style></defs><rect class="uuid-3301b413-f75c-4a06-8490-e29b8c8977b9" x=".5" y=".5" width="99" height="99" rx="49.5" ry="49.5"/><path class="uuid-221ec090-f4d6-4ce7-8d08-fe71aa7bc5f3" d="m50,77.84c-.28,0-.56-.06-.82-.18-9.21-4.16-19.77-4.16-28.98,0-.62.28-1.34.23-1.91-.14-.57-.37-.92-1-.92-1.68V27.16c0-.79.46-1.5,1.18-1.82,10.25-4.63,22.01-4.63,32.27,0,.72.32,1.18,1.04,1.18,1.82v48.68c0,.68-.34,1.31-.92,1.68-.33.21-.71.32-1.08.32ZM21.38,28.48v44.4c8.6-3.1,18.02-3.1,26.62,0V28.48c-8.53-3.49-18.09-3.49-26.62,0Z"/><path class="uuid-221ec090-f4d6-4ce7-8d08-fe71aa7bc5f3" d="m50,77.84c-.38,0-.76-.11-1.08-.32-.57-.37-.92-1-.92-1.68V27.16c0-.79.46-1.5,1.18-1.82,10.25-4.63,22.01-4.63,32.27,0,.72.32,1.18,1.04,1.18,1.82v48.68c0,.68-.34,1.31-.92,1.68-.57.37-1.29.42-1.91.14-9.21-4.16-19.77-4.16-28.98,0-.26.12-.54.18-.82.18Zm2-49.37v44.4c8.6-3.1,18.02-3.1,26.62,0V28.48c-8.53-3.48-18.09-3.48-26.62,0Z"/><path class="uuid-221ec090-f4d6-4ce7-8d08-fe71aa7bc5f3" d="m38.2,41.97c-.38,0-.77-.15-1.06-.44l-7.02-7.02c-.59-.59-.59-1.54,0-2.12s1.54-.59,2.12,0l7.02,7.02c.59.59.59,1.54,0,2.12-.29.29-.68.44-1.06.44Z"/><path class="uuid-221ec090-f4d6-4ce7-8d08-fe71aa7bc5f3" d="m31.18,41.97c-.38,0-.77-.15-1.06-.44-.59-.59-.59-1.54,0-2.12l7.02-7.02c.59-.59,1.54-.59,2.12,0s.59,1.54,0,2.12l-7.02,7.02c-.29.29-.68.44-1.06.44Z"/><path class="uuid-221ec090-f4d6-4ce7-8d08-fe71aa7bc5f3" d="m68.82,65.46c-.38,0-.77-.15-1.06-.44l-7.02-7.02c-.59-.59-.59-1.54,0-2.12s1.54-.59,2.12,0l7.02,7.02c.59.59.59,1.54,0,2.12-.29.29-.68.44-1.06.44Z"/><path class="uuid-221ec090-f4d6-4ce7-8d08-fe71aa7bc5f3" d="m61.8,65.46c-.38,0-.77-.15-1.06-.44-.59-.59-.59-1.54,0-2.12l7.02-7.02c.59-.59,1.54-.59,2.12,0s.59,1.54,0,2.12l-7.02,7.02c-.29.29-.68.44-1.06.44Z"/><path class="uuid-221ec090-f4d6-4ce7-8d08-fe71aa7bc5f3" d="m34.69,66.12c-2.95,0-5.34-2.4-5.34-5.34s2.4-5.34,5.34-5.34,5.34,2.4,5.34,5.34-2.4,5.34-5.34,5.34Zm0-7.69c-1.29,0-2.34,1.05-2.34,2.34s1.05,2.34,2.34,2.34,2.34-1.05,2.34-2.34-1.05-2.34-2.34-2.34Z"/><path class="uuid-221ec090-f4d6-4ce7-8d08-fe71aa7bc5f3" d="m70.45,38.46c-.39,0-.77-.15-1.07-.45l-4.09-4.15-4.07,4.01c-.59.58-1.54.58-2.12-.02-.58-.59-.57-1.54.02-2.12l5.14-5.07c.59-.58,1.54-.57,2.12.02l5.14,5.22c.58.59.57,1.54-.02,2.12-.29.29-.67.43-1.05.43Z"/><rect class="uuid-3301b413-f75c-4a06-8490-e29b8c8977b9" x="45.22" y="47.17" width="9.97" height="4.6"/><path class="uuid-221ec090-f4d6-4ce7-8d08-fe71aa7bc5f3" d="m34.69,58.44c-.83,0-1.5-.67-1.5-1.5v-9.77c0-.83.67-1.5,1.5-1.5h29.12v-13.92c0-.83.67-1.5,1.5-1.5s1.5.67,1.5,1.5v15.42c0,.83-.67,1.5-1.5,1.5h-29.12v8.27c0,.83-.67,1.5-1.5,1.5Z"/></svg>