<?xml version="1.0" encoding="utf-8"?>
<!-- Generator: Adobe Illustrator 28.0.0, SVG Export Plug-In . SVG Version: 6.00 Build 0)  -->
<svg version="1.1" xmlns="http://www.w3.org/2000/svg" xmlns:xlink="http://www.w3.org/1999/xlink" x="0px" y="0px" width="77.5px"
	 height="66.8px" viewBox="0 0 77.5 66.8" style="enable-background:new 0 0 77.5 66.8;" xml:space="preserve">
<style type="text/css">
	.st0{fill:#FFFFFF;}
	.st1{fill:#717171;}
	.st2{fill:#2B76BA;}
	.st3{fill:none;stroke:#717171;stroke-width:4;stroke-linecap:round;stroke-miterlimit:10;}
	.st4{fill:none;stroke:#717171;stroke-width:4;stroke-linejoin:round;stroke-miterlimit:10;}
	.st5{fill:none;stroke:#717171;stroke-width:3;stroke-linecap:round;stroke-linejoin:round;stroke-miterlimit:10;}
	.st6{fill:none;stroke:#FFFFFF;stroke-width:3;stroke-linecap:round;stroke-miterlimit:10;}
	.st7{fill:#333333;}
	.st8{fill:none;stroke:#FFFFFF;stroke-width:2;stroke-linecap:round;stroke-linejoin:round;stroke-miterlimit:10;}
	.st9{fill:#2C75BA;}
</style>
<g id="Layer_1">
	<g>
		<path class="st0" d="M74.4,6.4C63.1,1.3,50.1,1.2,38.7,6.2c-11.4-5-24.3-4.9-35.6,0.2C2.7,6.5,2.5,6.9,2.5,7.3v56
			c0,0.3,0.2,0.7,0.5,0.8c0.3,0.2,0.6,0.2,1,0.1c10.9-4.9,23.5-4.9,34.4,0c0,0,0,0,0,0c0.1,0,0.2,0.1,0.4,0.1s0.2,0,0.4-0.1
			c0,0,0,0,0,0c10.9-4.9,23.5-4.9,34.4,0c0.3,0.1,0.7,0.1,1-0.1c0.3-0.2,0.5-0.5,0.5-0.8v-56C75,6.9,74.7,6.5,74.4,6.4z M73,61.8
			c-10.6-4.4-22.6-4.4-33.2,0V37.2c0-0.6-0.4-1-1-1s-1,0.4-1,1v24.6c-10.6-4.4-22.6-4.4-33.2,0V7.9c10.6-4.6,22.6-4.6,33.2,0v14v7.4
			H21.1c-0.6,0-1,0.4-1,1v10.3c-2.5,0.5-4.4,2.7-4.4,5.3c0,3,2.4,5.4,5.4,5.4s5.4-2.4,5.4-5.4c0-2.6-1.9-4.9-4.4-5.3v-9.3h34.2
			c0.6,0,1-0.4,1-1V15l4.2,4.3c0.2,0.2,0.5,0.3,0.7,0.3c0.3,0,0.5-0.1,0.7-0.3c0.4-0.4,0.4-1,0-1.4l-5.9-6c0,0,0,0,0,0
			c-0.1-0.1-0.2-0.2-0.3-0.2s-0.3-0.1-0.4-0.1c0,0,0,0,0,0c0,0-0.1,0-0.1,0c-0.1,0-0.2,0-0.3,0.1c-0.1,0-0.2,0.1-0.3,0.2
			c0,0,0,0-0.1,0l0,0c0,0,0,0,0,0l-5.9,5.8c-0.4,0.4-0.4,1,0,1.4c0.4,0.4,1,0.4,1.4,0l4.2-4.2v14.4H39.7v-7.4v-14
			c10.6-4.6,22.6-4.6,33.2,0V61.8z M21.1,42.6c1.9,0,3.4,1.5,3.4,3.4c0,1.9-1.5,3.4-3.4,3.4s-3.4-1.5-3.4-3.4
			C17.7,44.1,19.2,42.6,21.1,42.6z"/>
		<path class="st0" d="M16.4,23.3c0.2,0.2,0.5,0.3,0.7,0.3s0.5-0.1,0.7-0.3l3.3-3.3l3.3,3.3c0.2,0.2,0.5,0.3,0.7,0.3
			s0.5-0.1,0.7-0.3c0.4-0.4,0.4-1,0-1.4l-3.3-3.3l3.3-3.3c0.4-0.4,0.4-1,0-1.4s-1-0.4-1.4,0l-3.3,3.3l-3.3-3.3c-0.4-0.4-1-0.4-1.4,0
			c-0.4,0.4-0.4,1,0,1.4l3.3,3.3l-3.3,3.3C16,22.3,16,22.9,16.4,23.3z"/>
		<path class="st0" d="M61.1,40.8c-0.4-0.4-1-0.4-1.4,0l-3.3,3.3L53,40.8c-0.4-0.4-1-0.4-1.4,0s-0.4,1,0,1.4l3.3,3.3l-3.3,3.3
			c-0.4,0.4-0.4,1,0,1.4c0.2,0.2,0.5,0.3,0.7,0.3s0.5-0.1,0.7-0.3l3.3-3.3l3.3,3.3c0.2,0.2,0.5,0.3,0.7,0.3s0.5-0.1,0.7-0.3
			c0.4-0.4,0.4-1,0-1.4l-3.3-3.3l3.3-3.3C61.5,41.9,61.5,41.2,61.1,40.8z"/>
	</g>
</g>
<g id="Layer_2">
</g>
<g id="Layer_3">
</g>
<g id="Layer_4">
</g>
<g id="Layer_5">
</g>
</svg>
